# This file uses centimeters as units for non-parametric coordinates.

v 0.304769 0.482966 0.873875
v 0.343310 0.551833 0.893716
v 0.253545 0.532785 0.800458
v 0.292085 0.601651 0.820299
v 0.572136 0.626014 0.784396
v 0.610676 0.582136 0.727730
v 0.559451 0.631955 0.654314
v 0.520911 0.675833 0.710979
v 0.343310 0.104389 0.590092
v 0.304769 0.148267 0.646757
v 0.253545 0.198086 0.573340
v 0.292085 0.154207 0.516675
v 0.610676 0.247437 0.500612
v 0.572136 0.178570 0.480772
v 0.520911 0.228389 0.407355
v 0.559451 0.297256 0.427195
v 0.309907 0.572580 0.788137
v 0.277370 0.514441 0.771387
v 0.503089 0.635206 0.695846
v 0.535626 0.598163 0.648007
v 0.535626 0.315600 0.456267
v 0.503089 0.257460 0.439517
v 0.309907 0.194834 0.531808
v 0.277370 0.231877 0.579647
v 0.334466 0.548696 0.823335
v 0.301928 0.490557 0.806585
v 0.527647 0.611322 0.731043
v 0.560184 0.574279 0.683205
v 0.560184 0.291715 0.491464
v 0.527647 0.233576 0.474715
v 0.334465 0.170950 0.567006
v 0.301928 0.207993 0.614844
v -0.270367 0.483359 0.877285
v -0.202241 0.539731 0.915538
v -0.270367 0.540885 0.792511
v -0.202241 0.597257 0.830763
v 0.202241 0.539731 0.915538
v 0.270367 0.483359 0.877285
v 0.270367 0.540885 0.792511
v 0.202241 0.597257 0.830763
v -0.202241 0.092287 0.611914
v -0.270367 0.148659 0.650167
v -0.270367 0.206185 0.565392
v -0.202241 0.149813 0.527139
v 0.270367 0.148659 0.650167
v 0.202241 0.092287 0.611914
v 0.202241 0.149813 0.527139
v 0.270367 0.206185 0.565392
v -0.170738 0.562408 0.807116
v -0.228252 0.514817 0.774822
v 0.170738 0.562408 0.807116
v 0.228252 0.514817 0.774822
v 0.228252 0.232253 0.583081
v 0.170738 0.184662 0.550787
v -0.170738 0.184662 0.550787
v -0.228252 0.232253 0.583081
v -0.170738 0.534829 0.847759
v -0.228252 0.487237 0.815465
v 0.170738 0.534829 0.847759
v 0.228252 0.487237 0.815465
v 0.228252 0.204674 0.623724
v 0.170738 0.157083 0.591430
v -0.170738 0.157083 0.591430
v -0.228252 0.204674 0.623724
v -0.610566 0.582136 0.727730
v -0.572025 0.626014 0.784396
v -0.559341 0.631955 0.654314
v -0.520801 0.675833 0.710979
v -0.343199 0.551833 0.893716
v -0.304659 0.482966 0.873875
v -0.253434 0.532785 0.800458
v -0.291975 0.601651 0.820299
v -0.572025 0.178570 0.480772
v -0.610566 0.247437 0.500612
v -0.559341 0.297256 0.427195
v -0.520801 0.228389 0.407355
v -0.304659 0.148267 0.646757
v -0.343199 0.104389 0.590092
v -0.291975 0.154207 0.516675
v -0.253434 0.198086 0.573340
v -0.502979 0.635206 0.695846
v -0.535516 0.598163 0.648007
v -0.309797 0.572580 0.788137
v -0.277260 0.514441 0.771387
v -0.277260 0.231877 0.579647
v -0.309797 0.194834 0.531808
v -0.502979 0.257460 0.439517
v -0.535516 0.315600 0.456267
v -0.527537 0.611322 0.731043
v -0.560074 0.574279 0.683205
v -0.334355 0.548696 0.823335
v -0.301818 0.490557 0.806585
v -0.301818 0.207993 0.614844
v -0.334355 0.170950 0.567006
v -0.527537 0.233576 0.474715
v -0.560074 0.291715 0.491464
v -0.160820 0.082489 0.804447
v -0.170367 0.090388 0.809808
v 0.160820 0.082489 0.804447
v 0.170367 0.090388 0.809808
v 0.170367 0.356537 0.990410
v 0.160820 0.364437 0.995771
v -0.160820 0.364437 0.995771
v -0.170367 0.356537 0.990410
v -0.160820 -0.677565 0.950977
v -0.170367 -0.677559 0.958064
v 0.160820 -0.677565 0.950977
v 0.170367 -0.677559 0.958064
v 0.170367 -0.677335 1.196814
v 0.160820 -0.677328 1.203901
v -0.160820 -0.677328 1.203901
v -0.170367 -0.677335 1.196814
vt 1.000000 0.125988
vt 1.000000 0.125987
vt 1.000000 0.874013
vt 1.000000 0.874013
vt -0.000000 0.125987
vt -0.000000 0.125988
vt -0.000000 0.874013
vt -0.000000 0.874013
vt 0.125987 1.000000
vt 0.125987 1.000000
vt 0.874013 1.000000
vt 0.874012 1.000000
vt 0.125987 0.000000
vt 0.125987 0.000000
vt 0.874012 0.000000
vt 0.874013 0.000000
vt 0.815753 0.077885
vt 0.922115 0.184247
vt 0.922115 0.815753
vt 0.815753 0.922116
vt 0.184247 0.922116
vt 0.077884 0.815753
vt 0.077884 0.184247
vt 0.184247 0.077885
vt 0.922115 0.184247
vt 0.815753 0.077885
vt 0.922115 0.815753
vt 0.815753 0.922116
vt 0.184247 0.922116
vt 0.077884 0.815753
vt 0.077884 0.184247
vt 0.184247 0.077885
vt 1.000000 0.125988
vt 1.000000 0.125987
vt 1.000000 0.874013
vt 1.000000 0.874013
vt -0.000000 0.125987
vt -0.000000 0.125988
vt -0.000000 0.874013
vt -0.000000 0.874013
vt 0.125987 1.000000
vt 0.125987 1.000000
vt 0.874013 1.000000
vt 0.874012 1.000000
vt 0.125987 0.000000
vt 0.125987 0.000000
vt 0.874012 0.000000
vt 0.874013 0.000000
vt 0.815753 0.077885
vt 0.922115 0.184247
vt 0.922115 0.815753
vt 0.815753 0.922116
vt 0.184247 0.922116
vt 0.077884 0.815753
vt 0.077884 0.184247
vt 0.184247 0.077885
vt 0.922115 0.184247
vt 0.815753 0.077885
vt 0.922115 0.815753
vt 0.815753 0.922116
vt 0.184247 0.922116
vt 0.077884 0.815753
vt 0.077884 0.184247
vt 0.184247 0.077885
vt 1.000000 0.125988
vt 1.000000 0.125987
vt 1.000000 0.874013
vt 1.000000 0.874013
vt -0.000000 0.125987
vt -0.000000 0.125988
vt -0.000000 0.874013
vt -0.000000 0.874013
vt 0.125987 1.000000
vt 0.125987 1.000000
vt 0.874013 1.000000
vt 0.874012 1.000000
vt 0.125987 0.000000
vt 0.125987 0.000000
vt 0.874012 0.000000
vt 0.874013 0.000000
vt 0.815753 0.077885
vt 0.922115 0.184247
vt 0.922115 0.815753
vt 0.815753 0.922116
vt 0.184247 0.922116
vt 0.077884 0.815753
vt 0.077884 0.184247
vt 0.184247 0.077885
vt 0.922115 0.184247
vt 0.815753 0.077885
vt 0.922115 0.815753
vt 0.815753 0.922116
vt 0.184247 0.922116
vt 0.077884 0.815753
vt 0.077884 0.184247
vt 0.184247 0.077885
vt 0.125987 0.000000
vt -0.000000 0.125987
vt -0.000000 0.874013
vt 0.125987 1.000000
vt 0.874012 1.000000
vt 1.000000 0.874013
vt 1.000000 0.125987
vt 0.874012 0.000000
vt 0.125987 0.000000
vt -0.000000 0.125987
vt -0.000000 0.874013
vt 0.125987 1.000000
vt 0.874012 1.000000
vt 1.000000 0.874013
vt 1.000000 0.125987
vt 0.874012 0.000000
vn -0.000000 0.827475 0.561503
vn -0.000000 0.827475 0.561503
vn -0.000000 0.827475 0.561503
vn -0.000000 0.827475 0.561503
vn -0.000000 -0.827475 -0.561503
vn -0.000000 -0.827475 -0.561503
vn -0.000000 -0.827475 -0.561503
vn -0.000000 -0.827475 -0.561503
vn 0.866026 0.280751 -0.413737
vn 0.866026 0.280751 -0.413737
vn 0.866026 0.280751 -0.413737
vn 0.866026 0.280751 -0.413737
vn -0.866025 -0.280752 0.413737
vn -0.866025 -0.280752 0.413737
vn -0.866025 -0.280752 0.413737
vn -0.866025 -0.280752 0.413737
vn -0.500000 0.486276 -0.716614
vn -0.500000 0.486276 -0.716614
vn -0.500000 0.486276 -0.716614
vn -0.500000 0.486276 -0.716614
vn -0.500000 0.486276 -0.716614
vn -0.500000 0.486276 -0.716614
vn -0.500000 0.486276 -0.716614
vn -0.500000 0.486276 -0.716614
vn 0.500000 -0.486276 0.716614
vn 0.500000 -0.486276 0.716614
vn 0.500000 -0.486276 0.716614
vn 0.500000 -0.486276 0.716614
vn 0.500000 -0.486276 0.716614
vn 0.500000 -0.486276 0.716614
vn 0.500000 -0.486276 0.716614
vn 0.500000 -0.486276 0.716614
vn -0.725038 0.217496 0.653464
vn -0.725038 0.217496 0.653464
vn -0.725038 0.217496 0.653464
vn -0.725038 0.217496 0.653464
vn 0.725037 0.687588 -0.039298
vn 0.725037 0.687588 -0.039298
vn 0.725037 0.687588 -0.039298
vn 0.725037 0.687588 -0.039298
vn -0.725037 -0.687587 0.039298
vn -0.725037 -0.687587 0.039298
vn -0.725037 -0.687587 0.039298
vn -0.725037 -0.687587 0.039298
vn 0.725038 -0.217496 -0.653465
vn 0.725037 -0.217496 -0.653465
vn 0.725038 -0.217496 -0.653465
vn 0.725037 -0.217496 -0.653465
vn -0.499998 0.486276 -0.716615
vn -0.499998 0.486276 -0.716615
vn -0.499998 0.486276 -0.716615
vn -0.499998 0.486276 -0.716615
vn -0.500000 0.486275 -0.716615
vn -0.500000 0.486275 -0.716615
vn -0.500000 0.486275 -0.716615
vn -0.500000 0.486275 -0.716615
vn -0.500002 0.486276 -0.716613
vn -0.500002 0.486276 -0.716613
vn -0.500002 0.486276 -0.716613
vn -0.500002 0.486276 -0.716613
vn -0.500002 0.486275 -0.716613
vn -0.500002 0.486275 -0.716614
vn -0.500002 0.486275 -0.716613
vn -0.500002 0.486275 -0.716613
vn -0.500001 0.486276 -0.716614
vn -0.500001 0.486276 -0.716614
vn -0.500001 0.486276 -0.716614
vn -0.500001 0.486276 -0.716614
vn -0.500000 0.486277 -0.716613
vn -0.500000 0.486277 -0.716613
vn -0.500000 0.486277 -0.716613
vn -0.500000 0.486277 -0.716613
vn -0.499999 0.486277 -0.716614
vn -0.499999 0.486277 -0.716614
vn -0.499999 0.486277 -0.716614
vn -0.499999 0.486277 -0.716614
vn -0.499998 0.486277 -0.716615
vn -0.499998 0.486277 -0.716615
vn -0.499998 0.486277 -0.716615
vn -0.499998 0.486277 -0.716615
vn 0.725038 -0.217498 -0.653464
vn 0.725038 -0.217498 -0.653464
vn 0.725038 -0.217498 -0.653464
vn 0.725038 -0.217498 -0.653464
vn 0.000000 -0.827474 -0.561504
vn 0.000000 -0.827474 -0.561504
vn 0.000000 -0.827474 -0.561504
vn 0.000000 -0.827474 -0.561504
vn -0.725037 -0.687588 0.039298
vn -0.725037 -0.687588 0.039298
vn -0.725037 -0.687588 0.039298
vn -0.725037 -0.687588 0.039298
vn -0.866026 -0.280751 0.413737
vn -0.866026 -0.280751 0.413737
vn -0.866026 -0.280751 0.413737
vn -0.866026 -0.280751 0.413737
vn -0.725037 0.217496 0.653465
vn -0.725037 0.217496 0.653465
vn -0.725037 0.217496 0.653465
vn -0.725037 0.217496 0.653465
vn 0.000000 0.827475 0.561503
vn 0.000000 0.827475 0.561503
vn 0.000000 0.827475 0.561503
vn 0.000000 0.827475 0.561503
vn 0.725038 0.687587 -0.039297
vn 0.725038 0.687587 -0.039298
vn 0.725038 0.687587 -0.039297
vn 0.725038 0.687587 -0.039297
vn 0.866025 0.280752 -0.413737
vn 0.866026 0.280752 -0.413737
vn 0.866025 0.280752 -0.413737
vn 0.866026 0.280752 -0.413737
vn 0.000000 0.827475 0.561503
vn 0.000000 0.827475 0.561503
vn 0.000000 0.827475 0.561503
vn 0.000000 0.827475 0.561503
vn 0.000000 -0.827475 -0.561503
vn 0.000000 -0.827475 -0.561503
vn 0.000000 -0.827475 -0.561503
vn 0.000000 -0.827475 -0.561503
vn 1.000000 0.000000 0.000000
vn 1.000000 0.000000 0.000000
vn 1.000000 0.000000 0.000000
vn 1.000000 0.000000 0.000000
vn -1.000000 0.000000 0.000000
vn -1.000000 0.000000 0.000000
vn -1.000000 0.000000 0.000000
vn -1.000000 0.000000 0.000000
vn 0.000000 0.561503 -0.827475
vn 0.000000 0.561503 -0.827475
vn 0.000000 0.561503 -0.827475
vn 0.000000 0.561503 -0.827475
vn 0.000000 0.561503 -0.827475
vn 0.000000 0.561503 -0.827475
vn 0.000000 0.561503 -0.827475
vn 0.000000 0.561503 -0.827475
vn 0.000000 -1.000000 0.000937
vn 0.000000 -1.000000 0.000937
vn 0.000000 -1.000000 0.000937
vn 0.000000 -1.000000 0.000937
vn 0.000000 -1.000000 0.000937
vn 0.000000 -1.000000 0.000937
vn 0.000000 -1.000000 0.000937
vn 0.000000 -1.000000 0.000937
vn -0.707107 0.585112 0.397043
vn -0.707107 0.585112 0.397043
vn -0.707107 0.585112 0.397043
vn -0.707107 0.585112 0.397043
vn 0.707107 0.585112 0.397042
vn 0.707107 0.585112 0.397043
vn 0.707107 0.585112 0.397042
vn 0.707107 0.585112 0.397042
vn -0.707107 -0.585113 -0.397042
vn -0.707107 -0.585113 -0.397042
vn -0.707107 -0.585113 -0.397042
vn -0.707107 -0.585113 -0.397042
vn 0.707107 -0.585113 -0.397042
vn 0.707107 -0.585113 -0.397042
vn 0.707107 -0.585113 -0.397042
vn 0.707107 -0.585113 -0.397042
vn 0.000000 0.561503 -0.827474
vn 0.000000 0.561503 -0.827475
vn 0.000000 0.561503 -0.827474
vn 0.000000 0.561503 -0.827474
vn 0.000000 0.561504 -0.827474
vn 0.000000 0.561504 -0.827474
vn 0.000000 0.561504 -0.827474
vn 0.000000 0.561504 -0.827474
vn 0.000000 0.561503 -0.827475
vn 0.000000 0.561503 -0.827474
vn 0.000000 0.561503 -0.827474
vn 0.000000 0.561503 -0.827474
vn 0.000000 0.561503 -0.827475
vn 0.000000 0.561503 -0.827475
vn 0.000000 0.561503 -0.827475
vn 0.000000 0.561503 -0.827475
vn -0.000001 0.561503 -0.827474
vn -0.000001 0.561503 -0.827475
vn -0.000001 0.561503 -0.827474
vn -0.000001 0.561503 -0.827474
vn 0.000000 0.561504 -0.827474
vn 0.000000 0.561504 -0.827474
vn 0.000000 0.561504 -0.827474
vn 0.000000 0.561504 -0.827474
vn 0.000001 0.561503 -0.827475
vn 0.000001 0.561503 -0.827474
vn 0.000001 0.561503 -0.827474
vn 0.000001 0.561503 -0.827474
vn 0.000000 0.561503 -0.827475
vn 0.000000 0.561503 -0.827475
vn 0.000000 0.561503 -0.827475
vn 0.000000 0.561503 -0.827475
vn 0.707107 -0.585113 -0.397042
vn 0.707107 -0.585113 -0.397042
vn 0.707107 -0.585113 -0.397042
vn 0.707107 -0.585113 -0.397042
vn 0.000000 -0.827474 -0.561504
vn 0.000000 -0.827474 -0.561504
vn 0.000000 -0.827474 -0.561504
vn 0.000000 -0.827474 -0.561504
vn -0.707107 -0.585113 -0.397042
vn -0.707107 -0.585113 -0.397042
vn -0.707107 -0.585113 -0.397042
vn -0.707107 -0.585113 -0.397042
vn -1.000000 0.000000 0.000000
vn -1.000000 0.000000 0.000000
vn -1.000000 0.000000 0.000000
vn -1.000000 0.000000 0.000000
vn -0.707107 0.585113 0.397043
vn -0.707107 0.585113 0.397043
vn -0.707107 0.585113 0.397043
vn -0.707107 0.585113 0.397043
vn 0.000000 0.827475 0.561503
vn 0.000000 0.827475 0.561503
vn 0.000000 0.827475 0.561503
vn 0.000000 0.827475 0.561503
vn 0.707107 0.585113 0.397043
vn 0.707107 0.585113 0.397043
vn 0.707107 0.585113 0.397043
vn 0.707107 0.585113 0.397043
vn 1.000000 0.000000 0.000000
vn 1.000000 0.000000 0.000000
vn 1.000000 0.000000 0.000000
vn 1.000000 0.000000 0.000000
vn 0.000000 0.827475 0.561503
vn 0.000000 0.827475 0.561503
vn 0.000000 0.827475 0.561503
vn 0.000000 0.827475 0.561503
vn 0.000000 -0.827475 -0.561503
vn 0.000000 -0.827475 -0.561503
vn 0.000000 -0.827475 -0.561503
vn 0.000000 -0.827475 -0.561503
vn 0.866025 -0.280752 0.413737
vn 0.866025 -0.280752 0.413737
vn 0.866025 -0.280752 0.413737
vn 0.866026 -0.280752 0.413737
vn -0.866026 0.280752 -0.413737
vn -0.866025 0.280752 -0.413737
vn -0.866025 0.280752 -0.413737
vn -0.866026 0.280752 -0.413737
vn 0.500000 0.486276 -0.716614
vn 0.500000 0.486276 -0.716614
vn 0.500000 0.486276 -0.716614
vn 0.500000 0.486276 -0.716614
vn 0.500000 0.486276 -0.716614
vn 0.500000 0.486276 -0.716614
vn 0.500000 0.486276 -0.716614
vn 0.500000 0.486276 -0.716614
vn -0.500000 -0.486276 0.716614
vn -0.500000 -0.486276 0.716614
vn -0.500000 -0.486276 0.716614
vn -0.500000 -0.486276 0.716614
vn -0.500000 -0.486276 0.716614
vn -0.500000 -0.486276 0.716614
vn -0.500000 -0.486276 0.716614
vn -0.500000 -0.486276 0.716614
vn -0.725037 0.687587 -0.039298
vn -0.725037 0.687587 -0.039298
vn -0.725037 0.687587 -0.039298
vn -0.725037 0.687588 -0.039298
vn 0.725038 0.217496 0.653464
vn 0.725038 0.217496 0.653464
vn 0.725038 0.217496 0.653464
vn 0.725038 0.217496 0.653464
vn -0.725038 -0.217496 -0.653464
vn -0.725038 -0.217496 -0.653464
vn -0.725038 -0.217496 -0.653465
vn -0.725038 -0.217496 -0.653465
vn 0.725037 -0.687587 0.039298
vn 0.725037 -0.687587 0.039298
vn 0.725037 -0.687587 0.039298
vn 0.725038 -0.687587 0.039298
vn 0.500001 0.486277 -0.716613
vn 0.500001 0.486277 -0.716613
vn 0.500001 0.486277 -0.716613
vn 0.500002 0.486277 -0.716613
vn 0.500000 0.486275 -0.716615
vn 0.500000 0.486275 -0.716615
vn 0.500000 0.486275 -0.716615
vn 0.500000 0.486275 -0.716615
vn 0.499999 0.486276 -0.716614
vn 0.499999 0.486276 -0.716614
vn 0.499999 0.486276 -0.716614
vn 0.499999 0.486276 -0.716614
vn 0.499998 0.486276 -0.716615
vn 0.499998 0.486276 -0.716615
vn 0.499998 0.486276 -0.716615
vn 0.499998 0.486276 -0.716615
vn 0.499999 0.486276 -0.716614
vn 0.499999 0.486276 -0.716614
vn 0.499999 0.486276 -0.716614
vn 0.499999 0.486276 -0.716614
vn 0.500000 0.486278 -0.716613
vn 0.500000 0.486278 -0.716613
vn 0.500000 0.486278 -0.716613
vn 0.500000 0.486278 -0.716613
vn 0.500001 0.486276 -0.716613
vn 0.500001 0.486276 -0.716613
vn 0.500001 0.486276 -0.716613
vn 0.500001 0.486276 -0.716613
vn 0.500002 0.486274 -0.716613
vn 0.500002 0.486274 -0.716613
vn 0.500003 0.486274 -0.716613
vn 0.500003 0.486274 -0.716613
vn 0.725036 -0.687589 0.039297
vn 0.725036 -0.687589 0.039297
vn 0.725036 -0.687589 0.039297
vn 0.725036 -0.687589 0.039297
vn -0.000001 -0.827474 -0.561504
vn -0.000001 -0.827474 -0.561504
vn -0.000001 -0.827474 -0.561504
vn -0.000001 -0.827474 -0.561504
vn -0.725038 -0.217498 -0.653464
vn -0.725038 -0.217498 -0.653464
vn -0.725038 -0.217498 -0.653464
vn -0.725038 -0.217498 -0.653464
vn -0.866025 0.280751 -0.413737
vn -0.866025 0.280751 -0.413737
vn -0.866026 0.280751 -0.413737
vn -0.866025 0.280751 -0.413737
vn -0.725037 0.687588 -0.039298
vn -0.725037 0.687588 -0.039298
vn -0.725037 0.687588 -0.039298
vn -0.725037 0.687588 -0.039298
vn -0.000000 0.827475 0.561503
vn -0.000000 0.827475 0.561503
vn -0.000000 0.827475 0.561503
vn -0.000000 0.827475 0.561503
vn 0.725037 0.217496 0.653465
vn 0.725037 0.217496 0.653465
vn 0.725037 0.217496 0.653465
vn 0.725037 0.217496 0.653465
vn 0.866026 -0.280751 0.413737
vn 0.866026 -0.280751 0.413737
vn 0.866026 -0.280751 0.413737
vn 0.866026 -0.280751 0.413737
vn -0.604538 -0.791501 0.089777
vn -0.604538 -0.791501 0.089777
vn -0.604538 -0.791501 0.089777
vn -0.604538 -0.791501 0.089777
vn 0.000000 -0.998707 -0.050827
vn 0.000000 -0.998707 -0.050827
vn 0.000000 -0.998707 -0.050827
vn 0.000000 -0.998707 -0.050827
vn 0.604538 -0.791501 0.089777
vn 0.604538 -0.791501 0.089777
vn 0.604538 -0.791501 0.089777
vn 0.604538 -0.791501 0.089777
vn 0.854945 -0.291262 0.429227
vn 0.854945 -0.291262 0.429227
vn 0.854945 -0.291262 0.429227
vn 0.854945 -0.291262 0.429227
vn 0.604539 0.208976 0.768676
vn 0.604539 0.208976 0.768676
vn 0.604539 0.208976 0.768676
vn 0.604539 0.208976 0.768676
vn 0.000000 0.416183 0.909281
vn 0.000000 0.416183 0.909281
vn 0.000000 0.416183 0.909281
vn 0.000000 0.416183 0.909281
vn -0.604539 0.208976 0.768676
vn -0.604539 0.208976 0.768676
vn -0.604539 0.208976 0.768676
vn -0.604539 0.208976 0.768676
vn -0.854945 -0.291262 0.429227
vn -0.854945 -0.291262 0.429227
vn -0.854945 -0.291262 0.429227
vn -0.854945 -0.291262 0.429227
vn -0.583517 -0.153836 -0.797397
vn -0.583517 -0.153836 -0.797397
vn -0.583517 -0.153836 -0.797397
vn -0.583517 -0.153836 -0.797397
vn 0.000000 -0.189303 -0.981919
vn 0.000000 -0.189303 -0.981919
vn 0.000000 -0.189303 -0.981919
vn 0.000000 -0.189303 -0.981919
vn 0.583517 -0.153836 -0.797397
vn 0.583517 -0.153836 -0.797397
vn 0.583517 -0.153836 -0.797397
vn 0.583517 -0.153836 -0.797397
vn 1.000000 0.000000 0.000000
vn 1.000000 0.000000 0.000000
vn 1.000000 0.000000 0.000000
vn 1.000000 0.000000 0.000000
vn 0.584508 0.158908 0.795675
vn 0.584508 0.158908 0.795675
vn 0.584508 0.158908 0.795675
vn 0.584508 0.158908 0.795675
vn 0.000000 0.195914 0.980621
vn 0.000000 0.195914 0.980621
vn 0.000000 0.195914 0.980621
vn 0.000000 0.195914 0.980621
vn -0.584508 0.158908 0.795675
vn -0.584508 0.158908 0.795675
vn -0.584508 0.158908 0.795675
vn -0.584508 0.158908 0.795675
vn -1.000000 0.000000 0.000000
vn -1.000000 0.000000 0.000000
vn -1.000000 0.000000 0.000000
vn -1.000000 0.000000 0.000000
f 4/1/1 2/2/2 5/3/3 8/4/4
f 9/5/5 12/6/6 15/7/7 14/8/8
f 13/9/9 16/10/10 7/11/11 6/12/12
f 11/13/13 10/14/14 1/15/15 3/16/16
f 26/17/17 25/18/18 27/19/19 28/20/20 29/21/21 30/22/22 31/23/23 32/24/24
f 10/14/25 9/5/26 14/8/27 13/9/28 6/12/29 5/3/30 2/2/31 1/15/32
f 1/15/33 2/2/34 4/1/35 3/16/36
f 5/3/37 6/12/38 7/11/39 8/4/40
f 9/5/41 10/14/42 11/13/43 12/6/44
f 13/9/45 14/8/46 15/7/47 16/10/48
f 3/16/49 4/1/50 17/25/51 18/26/52
f 4/1/53 8/4/54 19/27/55 17/25/56
f 8/4/57 7/11/58 20/28/59 19/27/60
f 7/11/61 16/10/62 21/29/63 20/28/64
f 16/10/65 15/7/66 22/30/67 21/29/68
f 15/7/69 12/6/70 23/31/71 22/30/72
f 12/6/73 11/13/74 24/32/75 23/31/76
f 11/13/77 3/16/78 18/26/79 24/32/80
f 18/26/81 17/25/82 25/18/83 26/17/84
f 17/25/85 19/27/86 27/19/87 25/18/88
f 19/27/89 20/28/90 28/20/91 27/19/92
f 20/28/93 21/29/94 29/21/95 28/20/96
f 21/29/97 22/30/98 30/22/99 29/21/100
f 22/30/101 23/31/102 31/23/103 30/22/104
f 23/31/105 24/32/106 32/24/107 31/23/108
f 24/32/109 18/26/110 26/17/111 32/24/112
f 36/33/113 34/34/114 37/35/115 40/36/116
f 41/37/117 44/38/118 47/39/119 46/40/120
f 45/41/121 48/42/122 39/43/123 38/44/124
f 43/45/125 42/46/126 33/47/127 35/48/128
f 58/49/129 57/50/130 59/51/131 60/52/132 61/53/133 62/54/134 63/55/135 64/56/136
f 106/105/137 105/106/138 107/107/139 108/108/140 109/109/141 110/110/142 111/111/143 112/112/144
f 33/47/145 34/34/146 36/33/147 35/48/148
f 37/35/149 38/44/150 39/43/151 40/36/152
f 41/37/153 42/46/154 43/45/155 44/38/156
f 45/41/157 46/40/158 47/39/159 48/42/160
f 35/48/161 36/33/162 49/57/163 50/58/164
f 36/33/165 40/36/166 51/59/167 49/57/168
f 40/36/169 39/43/170 52/60/171 51/59/172
f 39/43/173 48/42/174 53/61/175 52/60/176
f 48/42/177 47/39/178 54/62/179 53/61/180
f 47/39/181 44/38/182 55/63/183 54/62/184
f 44/38/185 43/45/186 56/64/187 55/63/188
f 43/45/189 35/48/190 50/58/191 56/64/192
f 50/58/193 49/57/194 57/50/195 58/49/196
f 49/57/197 51/59/198 59/51/199 57/50/200
f 51/59/201 52/60/202 60/52/203 59/51/204
f 52/60/205 53/61/206 61/53/207 60/52/208
f 53/61/209 54/62/210 62/54/211 61/53/212
f 54/62/213 55/63/214 63/55/215 62/54/216
f 55/63/217 56/64/218 64/56/219 63/55/220
f 56/64/221 50/58/222 58/49/223 64/56/224
f 68/65/225 66/66/226 69/67/227 72/68/228
f 73/69/229 76/70/230 79/71/231 78/72/232
f 77/73/233 80/74/234 71/75/235 70/76/236
f 75/77/237 74/78/238 65/79/239 67/80/240
f 90/81/241 89/82/242 91/83/243 92/84/244 93/85/245 94/86/246 95/87/247 96/88/248
f 74/78/249 73/69/250 78/72/251 77/73/252 70/76/253 69/67/254 66/66/255 65/79/256
f 65/79/257 66/66/258 68/65/259 67/80/260
f 69/67/261 70/76/262 71/75/263 72/68/264
f 73/69/265 74/78/266 75/77/267 76/70/268
f 77/73/269 78/72/270 79/71/271 80/74/272
f 67/80/273 68/65/274 81/89/275 82/90/276
f 68/65/277 72/68/278 83/91/279 81/89/280
f 72/68/281 71/75/282 84/92/283 83/91/284
f 71/75/285 80/74/286 85/93/287 84/92/288
f 80/74/289 79/71/290 86/94/291 85/93/292
f 79/71/293 76/70/294 87/95/295 86/94/296
f 76/70/297 75/77/298 88/96/299 87/95/300
f 75/77/301 67/80/302 82/90/303 88/96/304
f 82/90/305 81/89/306 89/82/307 90/81/308
f 81/89/309 83/91/310 91/83/311 89/82/312
f 83/91/313 84/92/314 92/84/315 91/83/316
f 84/92/317 85/93/318 93/85/319 92/84/320
f 85/93/321 86/94/322 94/86/323 93/85/324
f 86/94/325 87/95/326 95/87/327 94/86/328
f 87/95/329 88/96/330 96/88/331 95/87/332
f 88/96/333 82/90/334 90/81/335 96/88/336
f 42/46/337 41/37/338 97/98/339 98/97/340
f 41/37/341 46/40/342 99/99/343 97/98/344
f 46/40/345 45/41/346 100/100/347 99/99/348
f 45/41/349 38/44/350 101/101/351 100/100/352
f 38/44/353 37/35/354 102/102/355 101/101/356
f 37/35/357 34/34/358 103/103/359 102/102/360
f 34/34/361 33/47/362 104/104/363 103/103/364
f 33/47/365 42/46/366 98/97/367 104/104/368
f 98/97/369 97/98/370 105/106/371 106/105/372
f 97/98/373 99/99/374 107/107/375 105/106/376
f 99/99/377 100/100/378 108/108/379 107/107/380
f 100/100/381 101/101/382 109/109/383 108/108/384
f 101/101/385 102/102/386 110/110/387 109/109/388
f 102/102/389 103/103/390 111/111/391 110/110/392
f 103/103/393 104/104/394 112/112/395 111/111/396
f 104/104/397 98/97/398 106/105/399 112/112/400
